<svg width="205" height="90" viewBox="0 0 205 90" fill="none" xmlns="http://www.w3.org/2000/svg">
<g clip-path="url(#clip0_47_2)">
<ellipse cx="147.608" cy="44.7155" rx="30.7843" ry="42.8534" transform="rotate(26 147.608 44.7155)" fill="#155DFC" fill-opacity="0.1"/>
<path d="M19.5234 49.4922H10.7344L10.6875 44.1016H17.8125C19.0938 44.1016 20.1172 43.9609 20.8828 43.6797C21.6484 43.3828 22.2031 42.9531 22.5469 42.3906C22.9062 41.8281 23.0859 41.125 23.0859 40.2812C23.0859 39.3125 22.9062 38.5312 22.5469 37.9375C22.1875 37.3438 21.6172 36.9141 20.8359 36.6484C20.0703 36.3672 19.0781 36.2266 17.8594 36.2266H13.8281V64H5.60156V29.875H17.8594C19.9688 29.875 21.8516 30.0703 23.5078 30.4609C25.1641 30.8359 26.5703 31.4141 27.7266 32.1953C28.8984 32.9766 29.7891 33.9609 30.3984 35.1484C31.0078 36.3203 31.3125 37.7031 31.3125 39.2969C31.3125 40.6875 31.0156 41.9922 30.4219 43.2109C29.8281 44.4297 28.8359 45.4219 27.4453 46.1875C26.0703 46.9375 24.1875 47.3281 21.7969 47.3594L19.5234 49.4922ZM19.1953 64H8.74219L11.5547 57.6719H19.1953C20.3203 57.6719 21.2188 57.5 21.8906 57.1562C22.5781 56.7969 23.0703 56.3281 23.3672 55.75C23.6797 55.1562 23.8359 54.5 23.8359 53.7812C23.8359 52.9062 23.6875 52.1484 23.3906 51.5078C23.1094 50.8672 22.6562 50.375 22.0312 50.0312C21.4062 49.6719 20.5703 49.4922 19.5234 49.4922H12.6094L12.6562 44.1016H20.9297L22.8516 46.2578C25.1328 46.1641 26.9375 46.4844 28.2656 47.2188C29.6094 47.9531 30.5703 48.9219 31.1484 50.125C31.7266 51.3281 32.0156 52.5859 32.0156 53.8984C32.0156 56.1328 31.5312 58 30.5625 59.5C29.6094 61 28.1797 62.125 26.2734 62.875C24.3672 63.625 22.0078 64 19.1953 64ZM50.5078 49.4922H41.7188L41.6719 44.1016H48.7969C50.0781 44.1016 51.1016 43.9609 51.8672 43.6797C52.6328 43.3828 53.1875 42.9531 53.5312 42.3906C53.8906 41.8281 54.0703 41.125 54.0703 40.2812C54.0703 39.3125 53.8906 38.5312 53.5312 37.9375C53.1719 37.3438 52.6016 36.9141 51.8203 36.6484C51.0547 36.3672 50.0625 36.2266 48.8438 36.2266H44.8125V64H36.5859V29.875H48.8438C50.9531 29.875 52.8359 30.0703 54.4922 30.4609C56.1484 30.8359 57.5547 31.4141 58.7109 32.1953C59.8828 32.9766 60.7734 33.9609 61.3828 35.1484C61.9922 36.3203 62.2969 37.7031 62.2969 39.2969C62.2969 40.6875 62 41.9922 61.4062 43.2109C60.8125 44.4297 59.8203 45.4219 58.4297 46.1875C57.0547 46.9375 55.1719 47.3281 52.7812 47.3594L50.5078 49.4922ZM50.1797 64H39.7266L42.5391 57.6719H50.1797C51.3047 57.6719 52.2031 57.5 52.875 57.1562C53.5625 56.7969 54.0547 56.3281 54.3516 55.75C54.6641 55.1562 54.8203 54.5 54.8203 53.7812C54.8203 52.9062 54.6719 52.1484 54.375 51.5078C54.0938 50.8672 53.6406 50.375 53.0156 50.0312C52.3906 49.6719 51.5547 49.4922 50.5078 49.4922H43.5938L43.6406 44.1016H51.9141L53.8359 46.2578C56.1172 46.1641 57.9219 46.4844 59.25 47.2188C60.5938 47.9531 61.5547 48.9219 62.1328 50.125C62.7109 51.3281 63 52.5859 63 53.8984C63 56.1328 62.5156 58 61.5469 59.5C60.5938 61 59.1641 62.125 57.2578 62.875C55.3516 63.625 52.9922 64 50.1797 64ZM85.1484 54.9297C85.1484 54.3984 85.0703 53.9219 84.9141 53.5C84.7578 53.0625 84.4688 52.6562 84.0469 52.2812C83.625 51.9062 83.0156 51.5312 82.2188 51.1562C81.4375 50.7656 80.4062 50.3594 79.125 49.9375C77.625 49.4375 76.1797 48.875 74.7891 48.25C73.3984 47.6094 72.1562 46.8672 71.0625 46.0234C69.9688 45.1641 69.1016 44.1641 68.4609 43.0234C67.8203 41.8672 67.5 40.5234 67.5 38.9922C67.5 37.5234 67.8281 36.2031 68.4844 35.0312C69.1406 33.8438 70.0547 32.8359 71.2266 32.0078C72.4141 31.1641 73.8047 30.5234 75.3984 30.0859C76.9922 29.6328 78.7344 29.4062 80.625 29.4062C83.125 29.4062 85.3281 29.8438 87.2344 30.7188C89.1562 31.5781 90.6562 32.8047 91.7344 34.3984C92.8281 35.9766 93.375 37.8438 93.375 40H85.1953C85.1953 39.1406 85.0156 38.3828 84.6562 37.7266C84.3125 37.0703 83.7891 36.5547 83.0859 36.1797C82.3828 35.8047 81.5 35.6172 80.4375 35.6172C79.4062 35.6172 78.5391 35.7734 77.8359 36.0859C77.1328 36.3984 76.6016 36.8203 76.2422 37.3516C75.8828 37.8672 75.7031 38.4375 75.7031 39.0625C75.7031 39.5781 75.8438 40.0469 76.125 40.4688C76.4219 40.875 76.8359 41.2578 77.3672 41.6172C77.9141 41.9766 78.5703 42.3203 79.3359 42.6484C80.1172 42.9766 80.9922 43.2969 81.9609 43.6094C83.7734 44.1875 85.3828 44.8359 86.7891 45.5547C88.2109 46.2578 89.4062 47.0625 90.375 47.9688C91.3594 48.8594 92.1016 49.875 92.6016 51.0156C93.1172 52.1562 93.375 53.4453 93.375 54.8828C93.375 56.4141 93.0781 57.7734 92.4844 58.9609C91.8906 60.1484 91.0391 61.1562 89.9297 61.9844C88.8203 62.7969 87.4922 63.4141 85.9453 63.8359C84.3984 64.2578 82.6719 64.4688 80.7656 64.4688C79.0156 64.4688 77.2891 64.25 75.5859 63.8125C73.8984 63.3594 72.3672 62.6719 70.9922 61.75C69.6172 60.8125 68.5156 59.6172 67.6875 58.1641C66.875 56.6953 66.4688 54.9531 66.4688 52.9375H74.7188C74.7188 53.9375 74.8516 54.7812 75.1172 55.4688C75.3828 56.1562 75.7734 56.7109 76.2891 57.1328C76.8047 57.5391 77.4375 57.8359 78.1875 58.0234C78.9375 58.1953 79.7969 58.2812 80.7656 58.2812C81.8125 58.2812 82.6562 58.1328 83.2969 57.8359C83.9375 57.5234 84.4062 57.1172 84.7031 56.6172C85 56.1016 85.1484 55.5391 85.1484 54.9297ZM111.539 49.4922H102.75L102.703 44.1016H109.828C111.109 44.1016 112.133 43.9609 112.898 43.6797C113.664 43.3828 114.219 42.9531 114.562 42.3906C114.922 41.8281 115.102 41.125 115.102 40.2812C115.102 39.3125 114.922 38.5312 114.562 37.9375C114.203 37.3438 113.633 36.9141 112.852 36.6484C112.086 36.3672 111.094 36.2266 109.875 36.2266H105.844V64H97.6172V29.875H109.875C111.984 29.875 113.867 30.0703 115.523 30.4609C117.18 30.8359 118.586 31.4141 119.742 32.1953C120.914 32.9766 121.805 33.9609 122.414 35.1484C123.023 36.3203 123.328 37.7031 123.328 39.2969C123.328 40.6875 123.031 41.9922 122.438 43.2109C121.844 44.4297 120.852 45.4219 119.461 46.1875C118.086 46.9375 116.203 47.3281 113.812 47.3594L111.539 49.4922ZM111.211 64H100.758L103.57 57.6719H111.211C112.336 57.6719 113.234 57.5 113.906 57.1562C114.594 56.7969 115.086 56.3281 115.383 55.75C115.695 55.1562 115.852 54.5 115.852 53.7812C115.852 52.9062 115.703 52.1484 115.406 51.5078C115.125 50.8672 114.672 50.375 114.047 50.0312C113.422 49.6719 112.586 49.4922 111.539 49.4922H104.625L104.672 44.1016H112.945L114.867 46.2578C117.148 46.1641 118.953 46.4844 120.281 47.2188C121.625 47.9531 122.586 48.9219 123.164 50.125C123.742 51.3281 124.031 52.5859 124.031 53.8984C124.031 56.1328 123.547 58 122.578 59.5C121.625 61 120.195 62.125 118.289 62.875C116.383 63.625 114.023 64 111.211 64Z" fill="#09090B"/>
<path d="M140.242 70C134.182 70 131.152 65.4568 131.152 56.3704C131.152 54.9877 131.195 53.5062 131.28 51.9259C131.451 50.2469 131.707 48.4691 132.048 46.5926C131.707 46.2963 131.366 45.9012 131.024 45.4074C130.683 44.8148 130.341 44.1235 130 43.3333C130.341 43.4321 130.683 43.6296 131.024 43.9259C131.451 44.1235 131.963 44.321 132.561 44.5185C133.499 39.5802 136.06 34.6914 140.242 29.8519C144.766 24.5185 149.033 21.8519 153.045 21.8519C153.984 21.8519 154.453 22 154.453 22.2963C154.453 22.4938 153.856 22.9877 152.661 23.7778C149.503 25.7531 146.558 28.8148 143.827 32.963C140.925 37.1111 138.834 41.2593 137.554 45.4074C137.639 45.5062 137.682 45.5556 137.682 45.5556C137.682 45.5556 137.724 45.6049 137.81 45.7037C141.907 45.7037 146.174 43.4321 150.612 38.8889C155.051 34.3457 157.27 29.7037 157.27 24.963C157.27 23.5802 156.928 22.2469 156.246 20.963C155.648 19.7778 154.709 19.1852 153.429 19.1852C151.807 19.1852 149.887 19.9259 147.668 21.4074C145.534 22.9877 144.339 23.7778 144.083 23.7778C143.912 23.7778 143.827 23.7284 143.827 23.6296C143.827 22.4444 145.321 21.1605 148.308 19.7778C150.869 18.5926 152.874 18 154.325 18C156.374 18 157.995 18.642 159.19 19.9259C160.556 21.2099 161.239 22.9877 161.239 25.2593C161.239 30.4938 158.294 35.5802 152.405 40.5185C147.113 44.8642 141.992 47.284 137.042 47.7778C136.359 50.1481 136.017 52.4198 136.017 54.5926C136.017 62.7901 138.578 66.8889 143.699 66.8889C147.625 66.8889 151.722 64.9136 155.99 60.963C159.574 57.7037 162.562 53.7531 164.952 49.1111C165.72 47.7284 166.36 47.037 166.872 47.037C166.957 47.037 167 47.1358 167 47.3333C167 47.7284 166.659 48.6173 165.976 50C163.33 54.8395 159.617 59.284 154.837 63.3333C149.631 67.7778 144.766 70 140.242 70Z" fill="#155DFC"/>
<path d="M192.008 52.4453H200.211C200.102 54.8203 199.461 56.9141 198.289 58.7266C197.117 60.5391 195.492 61.9531 193.414 62.9688C191.352 63.9688 188.914 64.4688 186.102 64.4688C183.82 64.4688 181.781 64.0859 179.984 63.3203C178.203 62.5547 176.688 61.4531 175.438 60.0156C174.203 58.5781 173.258 56.8359 172.602 54.7891C171.961 52.7422 171.641 50.4375 171.641 47.875V46.0234C171.641 43.4609 171.977 41.1562 172.648 39.1094C173.336 37.0469 174.305 35.2969 175.555 33.8594C176.82 32.4062 178.336 31.2969 180.102 30.5312C181.867 29.7656 183.828 29.3828 185.984 29.3828C188.953 29.3828 191.461 29.9141 193.508 30.9766C195.555 32.0391 197.141 33.5 198.266 35.3594C199.391 37.2031 200.055 39.3047 200.258 41.6641H192.055C192.023 40.3828 191.805 39.3125 191.398 38.4531C190.992 37.5781 190.352 36.9219 189.477 36.4844C188.602 36.0469 187.438 35.8281 185.984 35.8281C184.969 35.8281 184.086 36.0156 183.336 36.3906C182.586 36.7656 181.961 37.3594 181.461 38.1719C180.961 38.9844 180.586 40.0391 180.336 41.3359C180.102 42.6172 179.984 44.1641 179.984 45.9766V47.875C179.984 49.6875 180.094 51.2344 180.312 52.5156C180.531 53.7969 180.883 54.8438 181.367 55.6562C181.852 56.4688 182.477 57.0703 183.242 57.4609C184.023 57.8359 184.977 58.0234 186.102 58.0234C187.352 58.0234 188.406 57.8281 189.266 57.4375C190.125 57.0312 190.789 56.4219 191.258 55.6094C191.727 54.7812 191.977 53.7266 192.008 52.4453Z" fill="#09090B"/>
</g>
<defs>
<clipPath id="clip0_47_2">
<rect width="205" height="90" fill="white"/>
</clipPath>
</defs>
</svg>
